<svg width="40" height="40" viewBox="0 0 40 40" fill="none" xmlns="http://www.w3.org/2000/svg">
<rect width="40" height="40" rx="12" fill="#FF9E4E"/>
<path fill-rule="evenodd" clip-rule="evenodd" d="M20.0004 13C20.43 13 20.7782 13.3482 20.7782 13.7778V26.2222C20.7782 26.6518 20.43 27 20.0004 27C19.5709 27 19.2227 26.6518 19.2227 26.2222V13.7778C19.2227 13.3482 19.5709 13 20.0004 13Z" fill="white"/>
<path fill-rule="evenodd" clip-rule="evenodd" d="M13 19.9999C13 19.5704 13.3482 19.2222 13.7778 19.2222H26.2222C26.6518 19.2222 27 19.5704 27 19.9999C27 20.4295 26.6518 20.7777 26.2222 20.7777H13.7778C13.3482 20.7777 13 20.4295 13 19.9999Z" fill="white"/>
<path fill-rule="evenodd" clip-rule="evenodd" d="M20.0004 13C20.43 13 20.7782 13.3482 20.7782 13.7778V26.2222C20.7782 26.6518 20.43 27 20.0004 27C19.5709 27 19.2227 26.6518 19.2227 26.2222V13.7778C19.2227 13.3482 19.5709 13 20.0004 13Z" fill="white"/>
<path fill-rule="evenodd" clip-rule="evenodd" d="M13 19.9999C13 19.5704 13.3482 19.2222 13.7778 19.2222H26.2222C26.6518 19.2222 27 19.5704 27 19.9999C27 20.4295 26.6518 20.7777 26.2222 20.7777H13.7778C13.3482 20.7777 13 20.4295 13 19.9999Z" fill="white"/>
</svg>
