<svg width="24" height="24" viewBox="0 0 24 24" fill="none" xmlns="http://www.w3.org/2000/svg">
<path d="M4 19.5H3H4ZM6.5 17V16V17ZM20 18C20.5523 18 21 17.5523 21 17C21 16.4477 20.5523 16 20 16V18ZM6.5 2V1V2ZM20 2H21C21 1.44772 20.5523 1 20 1V2ZM20 22V23C20.5523 23 21 22.5523 21 22H20ZM4 4.5H3H4ZM5 19.5C5 19.1022 5.15804 18.7206 5.43934 18.4393L4.02513 17.0251C3.36875 17.6815 3 18.5717 3 19.5H5ZM5.43934 18.4393C5.72064 18.158 6.10218 18 6.5 18V16C5.57174 16 4.6815 16.3687 4.02513 17.0251L5.43934 18.4393ZM6.5 18H20V16H6.5V18ZM6.5 3H20V1H6.5V3ZM19 2V22H21V2H19ZM20 21H6.5V23H20V21ZM6.5 21C6.10218 21 5.72064 20.842 5.43934 20.5607L4.02513 21.9749C4.6815 22.6313 5.57174 23 6.5 23V21ZM5.43934 20.5607C5.15804 20.2794 5 19.8978 5 19.5H3C3 20.4283 3.36875 21.3185 4.02513 21.9749L5.43934 20.5607ZM5 19.5V4.5H3V19.5H5ZM5 4.5C5 4.10218 5.15804 3.72064 5.43934 3.43934L4.02513 2.02513C3.36875 2.6815 3 3.57174 3 4.5H5ZM5.43934 3.43934C5.72064 3.15804 6.10218 3 6.5 3V1C5.57174 1 4.6815 1.36875 4.02513 2.02513L5.43934 3.43934Z" fill="white"/>
</svg>
