<svg width="10" height="12" viewBox="0 0 10 12" fill="none" xmlns="http://www.w3.org/2000/svg">
<path fill-rule="evenodd" clip-rule="evenodd" d="M0.972273 2.00078C1.24799 1.98546 1.48392 2.19656 1.49924 2.47227L1.94674 10.5258L1.44756 10.5535L1.94674 10.5258C1.96153 10.7919 2.18146 11 2.44801 11H7.55201C7.81856 11 8.03849 10.7919 8.05328 10.5258L8.55136 10.5534L8.05328 10.5258L8.50078 2.47227C8.5161 2.19656 8.75203 1.98546 9.02775 2.00078C9.30346 2.0161 9.51455 2.25204 9.49923 2.52775L9.05173 10.5812C9.00752 11.3771 8.34946 12 7.55201 12H2.44801C1.65056 12 0.992498 11.3771 0.948283 10.5812L0.500784 2.52775C0.485463 2.25204 0.696556 2.0161 0.972273 2.00078Z" fill="#C00218"/>
<path fill-rule="evenodd" clip-rule="evenodd" d="M2 1.5C2 0.671857 2.67186 0 3.5 0H6.49999C7.32814 0 7.99999 0.671857 7.99999 1.5V2.5C7.99999 2.77614 7.77614 3 7.49999 3H2.5C2.22386 3 2 2.77614 2 2.5V1.5ZM3.5 0.999999C3.22414 0.999999 3 1.22414 3 1.5V2H6.99999V1.5C6.99999 1.22414 6.77585 0.999999 6.49999 0.999999H3.5Z" fill="#C00218"/>
<path fill-rule="evenodd" clip-rule="evenodd" d="M0 2.5C0 2.22386 0.223857 2 0.499999 2H9.49999C9.77613 2 9.99999 2.22386 9.99999 2.5C9.99999 2.77614 9.77613 3 9.49999 3H0.499999C0.223857 3 0 2.77614 0 2.5Z" fill="#C00218"/>
</svg>
