<svg width="24" height="24" viewBox="0 0 24 24" fill="none" xmlns="http://www.w3.org/2000/svg">
<path d="M14 2L14.7071 1.29289C14.5196 1.10536 14.2652 1 14 1V2ZM6 2V1V2ZM4 4H3H4ZM4 20H3H4ZM20 8H21C21 7.73478 20.8946 7.48043 20.7071 7.29289L20 8ZM14 8H13C13 8.55228 13.4477 9 14 9V8ZM16 14C16.5523 14 17 13.5523 17 13C17 12.4477 16.5523 12 16 12V14ZM8 12C7.44772 12 7 12.4477 7 13C7 13.5523 7.44772 14 8 14V12ZM16 18C16.5523 18 17 17.5523 17 17C17 16.4477 16.5523 16 16 16V18ZM8 16C7.44772 16 7 16.4477 7 17C7 17.5523 7.44772 18 8 18V16ZM10 10C10.5523 10 11 9.55228 11 9C11 8.44772 10.5523 8 10 8V10ZM8 8C7.44772 8 7 8.44772 7 9C7 9.55228 7.44772 10 8 10V8ZM14 1H6V3H14V1ZM6 1C5.20435 1 4.44129 1.31607 3.87868 1.87868L5.29289 3.29289C5.48043 3.10536 5.73478 3 6 3V1ZM3.87868 1.87868C3.31607 2.44129 3 3.20435 3 4H5C5 3.73478 5.10536 3.48043 5.29289 3.29289L3.87868 1.87868ZM3 4V20H5V4H3ZM3 20C3 20.7957 3.31607 21.5587 3.87868 22.1213L5.29289 20.7071C5.10536 20.5196 5 20.2652 5 20H3ZM3.87868 22.1213C4.44129 22.6839 5.20435 23 6 23V21C5.73478 21 5.48043 20.8946 5.29289 20.7071L3.87868 22.1213ZM6 23H18V21H6V23ZM18 23C18.7957 23 19.5587 22.6839 20.1213 22.1213L18.7071 20.7071C18.5196 20.8946 18.2652 21 18 21V23ZM20.1213 22.1213C20.6839 21.5587 21 20.7957 21 20H19C19 20.2652 18.8946 20.5196 18.7071 20.7071L20.1213 22.1213ZM21 20V8H19V20H21ZM20.7071 7.29289L14.7071 1.29289L13.2929 2.70711L19.2929 8.70711L20.7071 7.29289ZM13 2V8H15V2H13ZM14 9H20V7H14V9ZM16 12H8V14H16V12ZM16 16H8V18H16V16ZM10 8H8V10H10V8Z" fill="white"/>
</svg>
