<svg width="24" height="24" viewBox="0 0 24 24" fill="none" xmlns="http://www.w3.org/2000/svg">
<path d="M8 5C7.44772 5 7 5.44772 7 6C7 6.55228 7.44772 7 8 7V5ZM21 7C21.5523 7 22 6.55228 22 6C22 5.44772 21.5523 5 21 5V7ZM8 11C7.44772 11 7 11.4477 7 12C7 12.5523 7.44772 13 8 13V11ZM21 13C21.5523 13 22 12.5523 22 12C22 11.4477 21.5523 11 21 11V13ZM8 17C7.44772 17 7 17.4477 7 18C7 18.5523 7.44772 19 8 19V17ZM21 19C21.5523 19 22 18.5523 22 18C22 17.4477 21.5523 17 21 17V19ZM3 5C2.44772 5 2 5.44772 2 6C2 6.55228 2.44772 7 3 7V5ZM3.01 7C3.56228 7 4.01 6.55228 4.01 6C4.01 5.44772 3.56228 5 3.01 5V7ZM3 11C2.44772 11 2 11.4477 2 12C2 12.5523 2.44772 13 3 13V11ZM3.01 13C3.56228 13 4.01 12.5523 4.01 12C4.01 11.4477 3.56228 11 3.01 11V13ZM3 17C2.44772 17 2 17.4477 2 18C2 18.5523 2.44772 19 3 19V17ZM3.01 19C3.56228 19 4.01 18.5523 4.01 18C4.01 17.4477 3.56228 17 3.01 17V19ZM8 7H21V5H8V7ZM8 13H21V11H8V13ZM8 19H21V17H8V19ZM3 7H3.01V5H3V7ZM3 13H3.01V11H3V13ZM3 19H3.01V17H3V19Z" fill="white"/>
</svg>
