<svg width="24" height="24" viewBox="0 0 24 24" fill="none" xmlns="http://www.w3.org/2000/svg">
<path fill-rule="evenodd" clip-rule="evenodd" d="M10.3636 4.63636C7.20078 4.63636 4.63636 7.20078 4.63636 10.3636C4.63636 13.5265 7.20078 16.0909 10.3636 16.0909C13.5265 16.0909 16.0909 13.5265 16.0909 10.3636C16.0909 7.20078 13.5265 4.63636 10.3636 4.63636ZM3 10.3636C3 6.29704 6.29704 3 10.3636 3C14.4302 3 17.7273 6.29704 17.7273 10.3636C17.7273 14.4302 14.4302 17.7273 10.3636 17.7273C6.29704 17.7273 3 14.4302 3 10.3636Z" fill="#3156DB"/>
<path fill-rule="evenodd" clip-rule="evenodd" d="M14.6942 14.6942C15.0137 14.3746 15.5318 14.3746 15.8513 14.6942L20.7604 19.6033C21.0799 19.9228 21.0799 20.4408 20.7604 20.7603C20.4409 21.0799 19.9228 21.0799 19.6033 20.7603L14.6942 15.8513C14.3747 15.5317 14.3747 15.0137 14.6942 14.6942Z" fill="#3156DB"/>
</svg>
